<svg width="17" height="16" viewBox="0 0 17 16" fill="none" xmlns="http://www.w3.org/2000/svg">
<g clip-path="url(#clip0_167_1642)">
<path d="M15.2586 8.27109C16.0336 8.28709 16.6666 9.21909 16.6666 10.3441C16.6666 11.4701 16.0336 12.4171 15.2586 12.4331H11.0527C11.5786 12.1181 11.8374 11.4891 12.1031 10.7541H15.2384C15.4033 10.7541 15.5376 10.5791 15.5376 10.3421C15.5376 10.2858 15.5298 10.23 15.5148 10.178C15.4997 10.126 15.4776 10.0788 15.4498 10.0391C15.422 9.9994 15.389 9.96801 15.3528 9.94672C15.3165 9.92544 15.2776 9.91469 15.2384 9.91509H13.7769C13.3972 9.91297 13.0335 9.69451 12.7657 9.30761C12.4978 8.92071 12.3476 8.39693 12.348 7.85109C12.348 6.71609 12.9887 5.78809 13.7762 5.78809H16.0329V7.39709H13.7769C13.6963 7.40074 13.6199 7.44953 13.564 7.53305C13.5081 7.61657 13.4772 7.7282 13.4777 7.84409C13.4777 8.08109 13.6113 8.27109 13.7769 8.27109H15.2586V8.27109ZM9.57653 5.78809C10.8329 5.78809 11.8499 7.27009 11.8499 9.09809C11.8499 10.9251 10.8308 12.4331 9.57444 12.4331H8.43427V16.0001H7.29688V9.10309C7.29688 7.27609 8.32018 5.78809 9.57653 5.78809ZM9.57653 10.7541C10.2089 10.7541 10.723 10.0241 10.723 9.09809C10.723 8.17209 10.2089 7.41809 9.57653 7.41809C8.94418 7.41809 8.43427 8.17209 8.43427 9.09809V10.7541H9.57653Z" fill="#727F96"/>
<path d="M3.69607 12.433H6.70268C6.66605 12.7276 6.55838 12.9942 6.3986 13.1861C6.23881 13.3779 6.03712 13.4827 5.82894 13.482H1.55416C1.06581 13.482 0.666504 12.887 0.666504 12.182V6.004C0.666504 5.3 1.06581 4.74 1.55416 4.74H5.82894C6.31659 4.74 6.71659 5.317 6.71659 6.023L6.71242 10.755H3.69607C3.23416 10.755 2.83346 10.44 2.6352 9.881H5.99033V9.078C5.98923 8.20167 5.74671 7.36164 5.31584 6.7417C4.88497 6.12176 4.30082 5.77238 3.6912 5.77C3.17836 5.77281 2.68092 6.02224 2.27812 6.47857C1.87533 6.93489 1.59035 7.57186 1.46859 8.288C1.46859 8.288 1.40111 8.771 1.40111 9.086C1.40111 9.401 1.47207 9.879 1.47207 9.879C1.71694 11.326 2.62059 12.434 3.69607 12.434V12.433ZM3.6912 7.339C4.15172 7.339 4.55172 7.746 4.75068 8.271H2.63172C2.83068 7.746 3.23137 7.339 3.6912 7.339V7.339ZM5.6272 2.729V3.494C5.6272 3.593 5.56737 3.69 5.49781 3.69H4.78546C4.7159 3.69 4.65955 3.593 4.65955 3.494V2.73C4.65955 1.977 4.22546 1.364 3.6912 1.364C3.15763 1.364 2.72355 1.977 2.72355 2.73V3.494C2.72355 3.593 2.66233 3.69 2.59276 3.69H1.88042C1.81085 3.69 1.7552 3.593 1.7552 3.494V2.655C1.78372 1.182 2.63937 0 3.6919 0C4.76042 0 5.6265 1.222 5.6265 2.73L5.6272 2.729Z" fill="#A41760"/>
</g>
<defs>
<clipPath id="clip0_167_1642">
<rect width="16" height="16" fill="white" transform="translate(0.666504)"/>
</clipPath>
</defs>
</svg>
