<svg width="17" height="17" viewBox="0 0 17 17" fill="none" xmlns="http://www.w3.org/2000/svg">
<path d="M5.35156 4.74609C5.07823 4.74609 4.85156 4.51943 4.85156 4.24609V2.24609C4.85156 1.97276 5.07823 1.74609 5.35156 1.74609C5.6249 1.74609 5.85156 1.97276 5.85156 2.24609V4.24609C5.85156 4.51943 5.6249 4.74609 5.35156 4.74609Z" fill="white"/>
<path d="M10.6875 4.74609C10.4142 4.74609 10.1875 4.51943 10.1875 4.24609V2.24609C10.1875 1.97276 10.4142 1.74609 10.6875 1.74609C10.9608 1.74609 11.1875 1.97276 11.1875 2.24609V4.24609C11.1875 4.51943 10.9608 4.74609 10.6875 4.74609Z" fill="white"/>
<path d="M5.6862 10.5791C5.59953 10.5791 5.51286 10.5592 5.43286 10.5258C5.3462 10.4925 5.27953 10.4458 5.21287 10.3858C5.09287 10.2591 5.01953 10.0925 5.01953 9.91248C5.01953 9.82581 5.03953 9.73914 5.07287 9.65914C5.1062 9.57914 5.15287 9.50582 5.21287 9.43915C5.27953 9.37915 5.3462 9.33247 5.43286 9.29914C5.67286 9.19914 5.97286 9.25249 6.15953 9.43915C6.27953 9.56582 6.35286 9.73915 6.35286 9.91248C6.35286 9.95248 6.3462 9.99915 6.33953 10.0458C6.33286 10.0858 6.31953 10.1258 6.29953 10.1658C6.2862 10.2058 6.2662 10.2458 6.23953 10.2858C6.21953 10.3191 6.1862 10.3525 6.15953 10.3858C6.03286 10.5058 5.85953 10.5791 5.6862 10.5791Z" fill="white"/>
<path d="M8.01823 10.5792C7.93156 10.5792 7.8449 10.5592 7.7649 10.5259C7.67823 10.4925 7.61156 10.4458 7.5449 10.3858C7.4249 10.2592 7.35156 10.0925 7.35156 9.91251C7.35156 9.82585 7.37156 9.73918 7.4049 9.65918C7.43823 9.57918 7.4849 9.50585 7.5449 9.43919C7.61156 9.37919 7.67823 9.3325 7.7649 9.29917C8.0049 9.1925 8.3049 9.25252 8.49156 9.43919C8.61156 9.56585 8.6849 9.73918 8.6849 9.91251C8.6849 9.95251 8.67823 9.99919 8.67156 10.0459C8.6649 10.0859 8.65156 10.1258 8.63156 10.1658C8.61823 10.2058 8.59823 10.2458 8.57156 10.2858C8.55156 10.3192 8.51823 10.3525 8.49156 10.3858C8.3649 10.5058 8.19156 10.5792 8.01823 10.5792Z" fill="white"/>
<path d="M10.3542 10.5792C10.2675 10.5792 10.1808 10.5592 10.1008 10.5259C10.0142 10.4925 9.9475 10.4458 9.88083 10.3858C9.85417 10.3525 9.8275 10.3192 9.80083 10.2858C9.77417 10.2458 9.75417 10.2058 9.74083 10.1658C9.72083 10.1258 9.7075 10.0859 9.70083 10.0459C9.69417 9.99919 9.6875 9.95251 9.6875 9.91251C9.6875 9.73918 9.76083 9.56585 9.88083 9.43919C9.9475 9.37919 10.0142 9.3325 10.1008 9.29917C10.3475 9.1925 10.6408 9.25252 10.8275 9.43919C10.9475 9.56585 11.0208 9.73918 11.0208 9.91251C11.0208 9.95251 11.0142 9.99919 11.0075 10.0459C11.0008 10.0859 10.9875 10.1258 10.9675 10.1658C10.9542 10.2058 10.9342 10.2458 10.9075 10.2858C10.8875 10.3192 10.8542 10.3525 10.8275 10.3858C10.7008 10.5058 10.5275 10.5792 10.3542 10.5792Z" fill="white"/>
<path d="M5.6862 12.9124C5.59953 12.9124 5.51286 12.8924 5.43286 12.8591C5.35286 12.8257 5.27953 12.7791 5.21287 12.7191C5.09287 12.5924 5.01953 12.4191 5.01953 12.2457C5.01953 12.1591 5.03953 12.0724 5.07287 11.9924C5.1062 11.9057 5.15287 11.8324 5.21287 11.7724C5.45953 11.5257 5.91286 11.5257 6.15953 11.7724C6.27953 11.8991 6.35286 12.0724 6.35286 12.2457C6.35286 12.4191 6.27953 12.5924 6.15953 12.7191C6.03286 12.8391 5.85953 12.9124 5.6862 12.9124Z" fill="white"/>
<path d="M8.01823 12.9124C7.8449 12.9124 7.67156 12.8391 7.5449 12.7191C7.4249 12.5924 7.35156 12.4191 7.35156 12.2457C7.35156 12.1591 7.37156 12.0724 7.4049 11.9924C7.43823 11.9057 7.4849 11.8324 7.5449 11.7724C7.79156 11.5257 8.2449 11.5257 8.49156 11.7724C8.55156 11.8324 8.59823 11.9057 8.63156 11.9924C8.66489 12.0724 8.6849 12.1591 8.6849 12.2457C8.6849 12.4191 8.61156 12.5924 8.49156 12.7191C8.3649 12.8391 8.19156 12.9124 8.01823 12.9124Z" fill="white"/>
<path d="M10.3542 12.9125C10.1808 12.9125 10.0075 12.8392 9.88083 12.7192C9.82083 12.6592 9.77417 12.5859 9.74083 12.4992C9.7075 12.4192 9.6875 12.3325 9.6875 12.2459C9.6875 12.1592 9.7075 12.0725 9.74083 11.9925C9.77417 11.9059 9.82083 11.8325 9.88083 11.7725C10.0342 11.6192 10.2675 11.5459 10.4808 11.5925C10.5275 11.5992 10.5675 11.6125 10.6075 11.6325C10.6475 11.6459 10.6875 11.6659 10.7275 11.6925C10.7608 11.7125 10.7942 11.7459 10.8275 11.7725C10.9475 11.8992 11.0208 12.0725 11.0208 12.2459C11.0208 12.4192 10.9475 12.5925 10.8275 12.7192C10.7008 12.8392 10.5275 12.9125 10.3542 12.9125Z" fill="white"/>
<path d="M13.6849 7.47266H2.35156C2.07823 7.47266 1.85156 7.24599 1.85156 6.97266C1.85156 6.69932 2.07823 6.47266 2.35156 6.47266H13.6849C13.9582 6.47266 14.1849 6.69932 14.1849 6.97266C14.1849 7.24599 13.9582 7.47266 13.6849 7.47266Z" fill="white"/>
<path d="M10.6862 16.0794H5.35286C2.91953 16.0794 1.51953 14.6794 1.51953 12.2461V6.57943C1.51953 4.14609 2.91953 2.74609 5.35286 2.74609H10.6862C13.1195 2.74609 14.5195 4.14609 14.5195 6.57943V12.2461C14.5195 14.6794 13.1195 16.0794 10.6862 16.0794ZM5.35286 3.74609C3.4462 3.74609 2.51953 4.67276 2.51953 6.57943V12.2461C2.51953 14.1528 3.4462 15.0794 5.35286 15.0794H10.6862C12.5929 15.0794 13.5195 14.1528 13.5195 12.2461V6.57943C13.5195 4.67276 12.5929 3.74609 10.6862 3.74609H5.35286Z" fill="white"/>
</svg>
