<svg width="17" height="17" viewBox="0 0 17 17" fill="none" xmlns="http://www.w3.org/2000/svg">
<path d="M8.01823 16.0794C4.0649 16.0794 0.851562 12.8661 0.851562 8.91276C0.851562 4.95943 4.0649 1.74609 8.01823 1.74609C11.9716 1.74609 15.1849 4.95943 15.1849 8.91276C15.1849 12.8661 11.9716 16.0794 8.01823 16.0794ZM8.01823 2.74609C4.61823 2.74609 1.85156 5.51276 1.85156 8.91276C1.85156 12.3128 4.61823 15.0794 8.01823 15.0794C11.4182 15.0794 14.1849 12.3128 14.1849 8.91276C14.1849 5.51276 11.4182 2.74609 8.01823 2.74609Z" fill="white"/>
<path d="M10.4946 11.5328C10.4079 11.5328 10.3212 11.5128 10.2413 11.4594L8.17458 10.2261C7.66125 9.91943 7.28125 9.2461 7.28125 8.65277V5.91943C7.28125 5.6461 7.50792 5.41943 7.78125 5.41943C8.05458 5.41943 8.28125 5.6461 8.28125 5.91943V8.65277C8.28125 8.89277 8.48125 9.2461 8.68792 9.3661L10.7546 10.5994C10.9946 10.7394 11.0679 11.0461 10.9279 11.2861C10.8279 11.4461 10.6613 11.5328 10.4946 11.5328Z" fill="white"/>
</svg>
