<svg width="16" height="16" viewBox="0 0 16 16" fill="none" xmlns="http://www.w3.org/2000/svg">
<path d="M11.4109 2.02779L11.9412 2.55812L11.4109 2.02779ZM13.9593 2.02779L14.4896 1.49746V1.49746L13.9593 2.02779ZM13.9593 4.57621L13.429 4.04588L13.9593 4.57621ZM4.0355 14.5V15.25C4.23441 15.25 4.42518 15.171 4.56583 15.0303L4.0355 14.5ZM1.5127 14.5H0.762695C0.762695 14.9142 1.09848 15.25 1.5127 15.25L1.5127 14.5ZM1.5127 11.926L0.982365 11.3956C0.841713 11.5363 0.762695 11.7271 0.762695 11.926H1.5127ZM11.9412 2.55812C12.352 2.14729 13.0181 2.14729 13.429 2.55812L14.4896 1.49746C13.493 0.500845 11.8772 0.500845 10.8805 1.49746L11.9412 2.55812ZM13.429 2.55812C13.8398 2.96896 13.8398 3.63505 13.429 4.04588L14.4896 5.10654C15.4862 4.10992 15.4862 2.49408 14.4896 1.49746L13.429 2.55812ZM13.429 4.04588L3.50517 13.9697L4.56583 15.0303L14.4896 5.10654L13.429 4.04588ZM4.0355 13.75H1.5127V15.25H4.0355V13.75ZM10.8805 1.49746L0.982365 11.3956L2.04303 12.4563L11.9412 2.55812L10.8805 1.49746ZM0.762695 11.926V14.5H2.2627V11.926H0.762695ZM9.79934 3.63933L12.3478 6.18775L13.4084 5.12708L10.86 2.57867L9.79934 3.63933Z" fill="#374151"/>
</svg>
